<svg width="21" height="19" viewBox="0 0 21 19" fill="none" xmlns="http://www.w3.org/2000/svg">
<path d="M20 1.6001L17.4996 4.0001L16 2.55992" stroke="#00B0B9" stroke-width="1.5" stroke-linecap="round" stroke-linejoin="round"/>
<path d="M12 2H3C1.895 2 1 2.895 1 4V16C1 17.105 1.895 18 3 18H16C17.105 18 18 17.105 18 16V8" stroke="#00B0B9" stroke-width="1.5" stroke-linecap="round" stroke-linejoin="round"/>
<path d="M4.96703 11.4671L6.47103 9.0811C6.82003 8.5281 7.59703 8.4531 8.04503 8.9291L9.12003 10.0711L10.247 7.6761C10.594 6.9381 11.632 6.9041 12.027 7.6181L14.181 11.5161C14.549 12.1831 14.066 13.0001 13.305 13.0001H5.81303C5.02503 13.0001 4.54703 12.1331 4.96703 11.4671V11.4671Z" stroke="#00B0B9" stroke-width="1.5" stroke-linecap="round" stroke-linejoin="round"/>
</svg>
