<svg width="21" height="20" viewBox="0 0 21 20" fill="none" xmlns="http://www.w3.org/2000/svg">
<path d="M18 1V5" stroke="#9AAFC2" stroke-width="1.5" stroke-linecap="round" stroke-linejoin="round"/>
<path d="M16 3H20" stroke="#9AAFC2" stroke-width="1.5" stroke-linecap="round" stroke-linejoin="round"/>
<path d="M12 3H3C1.895 3 1 3.895 1 5V17C1 18.105 1.895 19 3 19H16C17.105 19 18 18.105 18 17V9" stroke="#9AAFC2" stroke-width="1.5" stroke-linecap="round" stroke-linejoin="round"/>
<path d="M4.96703 12.4671L6.47103 10.0811C6.82003 9.5281 7.59703 9.4531 8.04503 9.9291L9.12003 11.0711L10.247 8.6761C10.594 7.9381 11.632 7.9041 12.027 8.6181L14.181 12.5161C14.549 13.1831 14.066 14.0001 13.305 14.0001H5.81303C5.02503 14.0001 4.54703 13.1331 4.96703 12.4671V12.4671Z" stroke="#9AAFC2" stroke-width="1.5" stroke-linecap="round" stroke-linejoin="round"/>
</svg>
