<svg width="24" height="24" viewBox="0 0 24 24" fill="none" xmlns="http://www.w3.org/2000/svg">
<path d="M8.06072 22.9079C8.32508 22.9079 8.589 22.8864 8.84986 22.8435C8.93358 22.83 9.01964 22.8135 9.10495 22.7945C9.58307 22.6889 10.0424 22.5113 10.4672 22.2679C11.7353 21.5436 12.7342 20.2214 13.2797 18.5448C13.4633 17.9772 13.5931 17.3936 13.6674 16.8016C13.8482 16.8193 14.0307 16.8292 14.2149 16.8292C15.332 16.8292 16.5055 16.5061 17.6584 15.8755C19.1487 15.0603 20.4683 13.8004 21.4745 12.2321C23.7487 8.68885 23.8109 4.48201 21.6227 2.22952C21.2472 1.84221 20.8091 1.52097 20.3268 1.27932C18.8758 0.551306 17.0895 0.574274 15.2971 1.34387C13.531 2.10207 11.9144 3.52356 10.7448 5.34615C10.399 5.88452 10.0983 6.4505 9.84562 7.03834C8.8208 6.28473 7.67063 5.8509 6.49181 5.83604C6.12268 5.83144 5.75425 5.86919 5.39372 5.94854C5.22811 5.98495 5.06461 6.03033 4.90392 6.08448C3.36436 6.59884 2.12011 7.88063 1.40044 9.69385C0.691219 11.4798 0.557438 13.6284 1.02361 15.7431C1.94602 19.9298 4.94236 22.9079 8.06072 22.9079ZM21.3341 3.03348C22.0906 3.96774 22.491 5.27059 22.468 6.74818C22.4419 8.43174 21.8649 10.2357 20.8433 11.8271C19.9047 13.2901 18.6789 14.4624 17.2985 15.2176C16.1227 15.8607 14.8898 16.1535 13.7829 16.0592C15.9633 14.3469 17.4314 11.887 17.9037 9.15516C18.281 6.98481 19.3323 4.98843 20.9084 3.44935L21.3341 3.03348ZM19.6457 2.63916L20.2227 2.07587C20.2695 2.10348 20.3167 2.13184 20.3633 2.16151C20.5203 2.26234 20.6702 2.37389 20.8118 2.49535L20.3844 2.91254C18.6954 4.56175 17.5689 6.70108 17.1646 9.02682C16.7563 11.3889 15.5487 13.539 13.7442 15.117C13.734 14.8136 13.7113 14.5082 13.6759 14.2009C15.2263 12.5885 16.259 10.5492 16.6412 8.34521C17.0142 6.17335 18.0661 4.17564 19.6457 2.63916ZM11.3759 5.7512C13.4505 2.51813 16.9097 0.84854 19.4929 1.74038L19.1218 2.10273C17.4291 3.74906 16.3019 5.88966 15.9023 8.21687C15.5797 10.0784 14.7588 11.8177 13.5268 13.25C13.5103 13.1667 13.4932 13.0833 13.4748 12.9999C12.9777 10.7437 11.8689 8.81865 10.4507 7.53385C10.7033 6.91227 11.013 6.31549 11.3759 5.7512ZM6.85242 7.20334L6.85833 6.60802C8.05402 6.73149 9.25955 7.3674 10.2903 8.42612C11.4647 9.63273 12.3356 11.3144 12.7426 13.1613C13.1333 14.9349 13.0707 16.7644 12.5669 18.3129C12.1811 19.4979 11.5515 20.4792 10.7583 21.1505C11.0837 18.3972 10.3769 15.6211 8.77458 13.3586C7.52035 11.5909 6.84823 9.4763 6.85172 7.30885C6.85172 7.27388 6.85172 7.23934 6.85219 7.20334H6.85242ZM5.38758 7.52616L5.39522 6.71991C5.44814 6.70585 5.5013 6.69277 5.55483 6.68101C5.73724 6.64094 5.92219 6.61345 6.10838 6.59874L6.10247 7.19509C6.10195 7.23324 6.10195 7.27084 6.10195 7.30899C6.09818 9.63157 6.81839 11.8976 8.16239 13.7918C9.6777 15.9313 10.3343 18.5618 10.0021 21.1624L9.93352 21.7043C9.70818 21.8205 9.47252 21.9156 9.22959 21.9882L9.28116 21.5795C9.34038 21.1107 9.37013 20.6386 9.37022 20.166C9.37426 17.8429 8.65402 15.5763 7.30973 13.6816C6.03406 11.8847 5.36101 9.72965 5.38734 7.52616H5.38758ZM4.64227 7.00027L4.63734 7.51885C4.60918 9.87998 5.33041 12.1892 6.69736 14.1146C7.95185 15.8827 8.62402 17.9978 8.62036 20.1657C8.62023 20.6068 8.59243 21.0475 8.53711 21.4851L8.45442 22.1388C7.11956 22.2654 5.73127 21.7313 4.51528 20.6154C3.18145 19.3913 2.20158 17.6036 1.75613 15.5818C0.92911 11.8305 2.18705 8.20159 4.64227 7.00027Z" fill="#9AAFC2"/>
<path d="M13.6009 5.42462C13.6956 5.42473 13.7869 5.38884 13.8562 5.32421C14.0135 5.17787 14.1789 5.0364 14.3477 4.90374C14.3864 4.87331 14.4188 4.83555 14.4429 4.79262C14.467 4.74969 14.4825 4.70242 14.4883 4.65353C14.4942 4.60463 14.4904 4.55506 14.4771 4.50764C14.4638 4.46022 14.4413 4.41589 14.4108 4.37717C14.3804 4.33845 14.3426 4.3061 14.2997 4.28197C14.2568 4.25785 14.2095 4.24241 14.1606 4.23655C14.1117 4.23069 14.0622 4.23452 14.0147 4.24782C13.9673 4.26111 13.923 4.28362 13.8843 4.31405C13.6992 4.45936 13.5179 4.61457 13.3452 4.77502C13.29 4.82633 13.2516 4.89305 13.2349 4.96651C13.2182 5.03997 13.224 5.11676 13.2516 5.18686C13.2792 5.25697 13.3272 5.31715 13.3895 5.35955C13.4517 5.40196 13.5253 5.42463 13.6007 5.42462H13.6009Z" fill="#9AAFC2"/>
<path d="M11.6847 7.72737C11.7288 7.74932 11.7768 7.76238 11.8259 7.76578C11.875 7.76918 11.9243 7.76286 11.971 7.74719C12.0177 7.73152 12.0609 7.7068 12.098 7.67444C12.1351 7.64208 12.1655 7.60272 12.1874 7.55862C12.4263 7.07831 12.7142 6.62392 13.0464 6.20266C13.0776 6.16408 13.1008 6.11968 13.1148 6.07204C13.1287 6.02441 13.133 5.97448 13.1275 5.92515C13.122 5.87583 13.1068 5.82809 13.0827 5.7847C13.0586 5.74131 13.0261 5.70314 12.9871 5.6724C12.9482 5.64166 12.9035 5.61895 12.8557 5.60561C12.8079 5.59226 12.7579 5.58854 12.7086 5.59465C12.6594 5.60077 12.6118 5.6166 12.5687 5.64123C12.5257 5.66586 12.4879 5.6988 12.4576 5.73813C12.0934 6.19994 11.7778 6.69811 11.5159 7.22473C11.4716 7.31377 11.4645 7.41675 11.4962 7.51101C11.5279 7.60527 11.5957 7.68309 11.6847 7.72737Z" fill="#9AAFC2"/>
<path d="M4.42984 19.3707C4.49448 19.4463 4.58651 19.4932 4.68568 19.5009C4.78485 19.5087 4.88303 19.4767 4.95863 19.412C5.03423 19.3474 5.08105 19.2554 5.0888 19.1562C5.09654 19.057 5.06457 18.9589 4.99993 18.8833C4.86029 18.7199 4.72576 18.5488 4.60032 18.3746C4.54219 18.2939 4.45438 18.2396 4.35621 18.2236C4.25804 18.2077 4.15755 18.2313 4.07685 18.2895C3.99614 18.3476 3.94184 18.4354 3.92588 18.5336C3.90992 18.6318 3.93361 18.7322 3.99175 18.8129C4.12951 19.004 4.27688 19.1916 4.42984 19.3707Z" fill="#9AAFC2"/>
<path d="M5.35471 20.298C5.8009 20.6813 6.28545 21.0174 6.80067 21.3011C6.84383 21.3251 6.89128 21.3402 6.94031 21.3458C6.98934 21.3513 7.03899 21.3472 7.0864 21.3335C7.13381 21.3198 7.17806 21.2969 7.21661 21.2661C7.25516 21.2353 7.28725 21.1972 7.31104 21.154C7.33484 21.1108 7.34986 21.0633 7.35527 21.0142C7.36067 20.9652 7.35633 20.9155 7.34252 20.8682C7.3287 20.8208 7.30567 20.7766 7.27475 20.7382C7.24382 20.6997 7.20562 20.6678 7.16231 20.6441C6.69239 20.3853 6.25042 20.0788 5.84343 19.7293C5.76787 19.6654 5.67013 19.6339 5.5715 19.6418C5.47287 19.6497 5.38135 19.6962 5.31687 19.7713C5.2524 19.8463 5.2202 19.9438 5.22728 20.0425C5.23437 20.1412 5.28017 20.2331 5.35471 20.2981V20.298Z" fill="#9AAFC2"/>
</svg>
