<svg width="30" height="26" viewBox="0 0 30 26" fill="none" xmlns="http://www.w3.org/2000/svg">
    <path d="M12.4548 7.87868C13.6264 9.05025 13.6264 10.9497 12.4548 12.1213C11.2832 13.2929 9.38375 13.2929 8.21218 12.1213C7.0406 10.9497 7.0406 9.05025 8.21218 7.87868C9.38375 6.70711 11.2832 6.70711 12.4548 7.87868Z" stroke="#00B0B9" stroke-width="1.5" stroke-linecap="round" stroke-linejoin="round"/>
    <path d="M1.66675 21.6666V4.38796C1.66675 2.88529 2.88541 1.66663 4.38808 1.66663H25.6667C27.1401 1.66663 28.3334 2.85996 28.3334 4.33329V21.6666C28.3334 23.14 27.1401 24.3333 25.6667 24.3333H4.33341C2.86008 24.3333 1.66675 23.14 1.66675 21.6666Z" stroke="#00B0B9" stroke-width="1.5" stroke-linecap="round" stroke-linejoin="round"/>
    <path d="M19 9.66663H24.3333" stroke="#00B0B9" stroke-width="1.5" stroke-linecap="round" stroke-linejoin="round"/>
    <path d="M22.2 15H19" stroke="#00B0B9" stroke-width="1.5" stroke-linecap="round" stroke-linejoin="round"/>
    <path d="M15.1267 18.9999C14.8934 18.4146 14.5334 17.8893 14.0707 17.4613C13.288 16.7359 12.2614 16.3333 11.1947 16.3333H9.47204C8.40537 16.3333 7.37871 16.7359 6.59604 17.4613C6.13337 17.8893 5.77337 18.4146 5.54004 18.9999" stroke="#00B0B9" stroke-width="1.5" stroke-linecap="round" stroke-linejoin="round"/>
    </svg>
    