<svg width="22" height="20" viewBox="0 0 22 20" fill="none" xmlns="http://www.w3.org/2000/svg">
<path d="M9.09099 6.15901C9.96967 7.03769 9.96967 8.46231 9.09099 9.34099C8.21231 10.2197 6.78769 10.2197 5.90901 9.34099C5.03033 8.46231 5.03033 7.03769 5.90901 6.15901C6.78769 5.28033 8.21231 5.28033 9.09099 6.15901Z" stroke="#00B0B9" stroke-width="1.5" stroke-linecap="round" stroke-linejoin="round"/>
<path d="M1 16.5V3.541C1 2.414 1.914 1.5 3.041 1.5H19C20.105 1.5 21 2.395 21 3.5V16.5C21 17.605 20.105 18.5 19 18.5H3C1.895 18.5 1 17.605 1 16.5Z" stroke="#00B0B9" stroke-width="1.5" stroke-linecap="round" stroke-linejoin="round"/>
<path d="M14 7.5H18" stroke="#00B0B9" stroke-width="1.5" stroke-linecap="round" stroke-linejoin="round"/>
<path d="M16.4 11.5H14" stroke="#00B0B9" stroke-width="1.5" stroke-linecap="round" stroke-linejoin="round"/>
<path d="M11.095 14.5C10.92 14.061 10.65 13.667 10.303 13.346C9.71603 12.802 8.94603 12.5 8.14603 12.5H6.85403C6.05403 12.5 5.28403 12.802 4.69703 13.346C4.35003 13.667 4.08003 14.061 3.90503 14.5" stroke="#00B0B9" stroke-width="1.5" stroke-linecap="round" stroke-linejoin="round"/>
</svg>
