<svg width="32" height="32" viewBox="0 0 32 32" fill="none" xmlns="http://www.w3.org/2000/svg">
    <path d="M25.0001 15.291C25.0001 19.83 20.9521 23.473 16.0001 23.473C15.3728 23.4727 14.747 23.4128 14.1311 23.294" stroke="#00B0B9" stroke-width="1.5" stroke-linecap="round" stroke-linejoin="round"/>
    <path d="M10.599 21.826C8.42 20.336 7 17.974 7 15.291" stroke="#00B0B9" stroke-width="1.5" stroke-linecap="round" stroke-linejoin="round"/>
    <path d="M10.5989 21.826C10.5979 22.68 10.5999 23.832 10.5999 25.041" stroke="#00B0B9" stroke-width="1.5" stroke-linecap="round" stroke-linejoin="round"/>
    <path d="M7 15.291C7 10.752 11.048 7.10999 16 7.10999C20.952 7.10999 25 10.753 25 15.292" stroke="#00B0B9" stroke-width="1.5" stroke-linecap="round" stroke-linejoin="round"/>
    <path d="M14.1301 23.29L10.6001 25.04" stroke="#00B0B9" stroke-width="1.5" stroke-linecap="round" stroke-linejoin="round"/>
    <path d="M12.1771 15.3228C12.224 15.3698 12.2504 15.4334 12.2504 15.4998C12.2504 15.5662 12.224 15.6299 12.1771 15.6768C12.1301 15.7238 12.0665 15.7501 12.0001 15.7501C11.9337 15.7501 11.87 15.7238 11.8231 15.6768C11.7998 15.6536 11.7814 15.626 11.7688 15.5956C11.7562 15.5652 11.7498 15.5327 11.7498 15.4998C11.7498 15.467 11.7562 15.4344 11.7688 15.404C11.7814 15.3737 11.7998 15.3461 11.8231 15.3228C11.8463 15.2996 11.8739 15.2811 11.9043 15.2686C11.9346 15.256 11.9672 15.2495 12.0001 15.2495C12.0329 15.2495 12.0655 15.256 12.0959 15.2686C12.1262 15.2811 12.1538 15.2996 12.1771 15.3228" stroke="#00B0B9" stroke-width="1.5" stroke-linecap="round" stroke-linejoin="round"/>
    <path d="M16.1771 15.3228C16.224 15.3698 16.2504 15.4334 16.2504 15.4998C16.2504 15.5662 16.224 15.6299 16.1771 15.6768C16.1301 15.7238 16.0665 15.7501 16.0001 15.7501C15.9337 15.7501 15.87 15.7238 15.8231 15.6768C15.7998 15.6536 15.7814 15.626 15.7688 15.5956C15.7562 15.5652 15.7498 15.5327 15.7498 15.4998C15.7498 15.467 15.7562 15.4344 15.7688 15.404C15.7814 15.3737 15.7998 15.3461 15.8231 15.3228C15.8463 15.2996 15.8739 15.2811 15.9043 15.2686C15.9346 15.256 15.9672 15.2495 16.0001 15.2495C16.0329 15.2495 16.0655 15.256 16.0959 15.2686C16.1262 15.2811 16.1538 15.2996 16.1771 15.3228" stroke="#00B0B9" stroke-width="1.5" stroke-linecap="round" stroke-linejoin="round"/>
    <path d="M20.1771 15.3228C20.224 15.3698 20.2504 15.4334 20.2504 15.4998C20.2504 15.5662 20.224 15.6299 20.1771 15.6768C20.1301 15.7238 20.0665 15.7501 20.0001 15.7501C19.9337 15.7501 19.87 15.7238 19.8231 15.6768C19.7998 15.6536 19.7814 15.626 19.7688 15.5956C19.7562 15.5652 19.7498 15.5327 19.7498 15.4998C19.7498 15.467 19.7562 15.4344 19.7688 15.404C19.7814 15.3737 19.7998 15.3461 19.8231 15.3228C19.8463 15.2996 19.8739 15.2811 19.9043 15.2686C19.9346 15.256 19.9672 15.2495 20.0001 15.2495C20.0329 15.2495 20.0655 15.256 20.0959 15.2686C20.1262 15.2811 20.1538 15.2996 20.1771 15.3228" stroke="#00B0B9" stroke-width="1.5" stroke-linecap="round" stroke-linejoin="round"/>
    </svg>
    