<svg width="32" height="32" viewBox="0 0 32 32" fill="none" xmlns="http://www.w3.org/2000/svg">
    <g clip-path="url(#clip0)">
        <path d="M24.0216 17.7707C23.957 17.5603 23.7912 17.3884 23.5708 17.3115C23.5263 17.296 23.1658 17.1743 22.6058 17.0962C24.9982 14.6677 24.2083 11.8306 24.0216 11.2765C23.957 11.0659 23.7912 10.8941 23.5708 10.8172C23.4681 10.7813 21.6774 10.179 19.6372 10.8563C19.7524 10.4055 19.8198 9.90989 19.8198 9.36605C19.8198 5.88651 17.0575 4.35715 16.5032 4.08564C16.3015 3.98028 16.0567 3.97065 15.844 4.06499C15.7069 4.12577 12.4844 5.59686 12.4844 9.36605C12.4844 9.91101 12.5521 10.4077 12.6678 10.8592C10.624 10.1773 8.82842 10.7813 8.72558 10.8172C8.50519 10.8941 8.33936 11.0659 8.27478 11.2765C8.08803 11.8306 7.29812 14.6677 9.6906 17.0962C9.13059 17.1743 8.77005 17.296 8.72558 17.3115C8.50519 17.3884 8.33929 17.5603 8.2747 17.7708C8.08408 18.3365 7.2644 21.2813 9.8437 23.7418C11.3363 25.1656 12.993 25.5053 14.2341 25.5053C14.6936 25.5053 15.0953 25.4586 15.4115 25.4032V29.9689C15.4115 30.3542 15.739 30.6667 16.143 30.6667C16.5469 30.6667 16.8744 30.3542 16.8744 29.9689V25.4015C17.1921 25.4576 17.5977 25.5052 18.0622 25.5052C19.3033 25.5052 20.9601 25.1654 22.4526 23.7417C25.0319 21.2812 24.2122 18.3364 24.0216 17.7707ZM15.4115 23.2281C15.3952 23.5448 15.3487 23.811 15.3041 24.0024C14.5222 24.1681 12.566 24.365 10.8782 22.7549C9.21581 21.1692 9.39004 19.3341 9.57408 18.5333C10.0657 18.4314 11.025 18.3178 12.0871 18.6465C12.157 18.6715 12.2267 18.6951 12.2961 18.7171C12.8586 18.9206 13.4426 19.2527 13.9961 19.7806C15.0508 20.7867 15.3658 21.8927 15.4115 22.7625V23.2281ZM15.4115 16.7339C15.3952 17.0506 15.3487 17.3168 15.3041 17.5081C14.8197 17.6109 13.8844 17.725 12.8415 17.4145C12.7359 17.3756 12.6307 17.3403 12.5264 17.3082C11.9808 17.1027 11.4159 16.7736 10.8781 16.2607C9.21581 14.6749 9.39004 12.8398 9.57408 12.0391C10.3552 11.8771 12.3169 11.6847 13.9961 13.2864C14.0068 13.2966 14.0164 13.3069 14.0269 13.317C14.091 13.3857 14.1554 13.4513 14.2197 13.5144C15.0952 14.4572 15.3692 15.4638 15.4115 16.2683V16.7339ZM16.1533 13.2329C15.924 13.0927 15.5937 12.8615 15.2582 12.5273C15.2239 12.4916 15.1893 12.4558 15.1538 12.4201C14.5426 11.7725 13.9473 10.7791 13.9473 9.36605C13.9473 7.09155 15.4731 5.91142 16.1484 5.50057C16.8715 5.94198 18.3567 7.12211 18.3567 9.36605C18.3567 10.6995 17.8322 11.6563 17.2622 12.3029C17.1437 12.4161 17.0329 12.5304 16.9283 12.6453C16.6359 12.9165 16.3558 13.1098 16.1533 13.2329ZM16.879 16.5078C16.8779 15.6886 17.1001 14.6045 18.0096 13.5865C18.1173 13.4843 18.2257 13.3744 18.333 13.2563C20.0115 11.6814 21.945 11.8738 22.7219 12.0377C22.906 12.8377 23.0814 14.674 21.4181 16.2607C20.8813 16.7728 20.3175 17.1016 19.7729 17.3073C19.6668 17.3398 19.5599 17.3757 19.4524 17.4153C18.4097 17.7253 17.475 17.6108 16.9925 17.5083C16.9384 17.2758 16.881 16.9342 16.8789 16.5255C16.8789 16.5196 16.879 16.5137 16.879 16.5078ZM21.4181 22.7549C19.73 24.3653 17.7737 24.168 16.9937 24.0029C16.8236 23.2607 16.618 21.3853 18.3002 19.7806C18.8384 19.2672 19.4038 18.9381 19.9497 18.7325C20.0539 18.7005 20.1587 18.6654 20.2641 18.6266C21.3047 18.3168 22.2378 18.4298 22.7219 18.5319C22.906 19.332 23.0814 21.1683 21.4181 22.7549Z" fill="#00B0B9" />
    </g>
    <defs>
        <clipPath id="clip0">
            <path d="M0 0H32V32H0V0Z" fill="white" />
        </clipPath>
    </defs>
</svg>