<svg width="24" height="24" viewBox="0 0 24 24" fill="none" xmlns="http://www.w3.org/2000/svg">
<g clip-path="url(#clip0)">
<path d="M12 21C7.029 21 3 16.971 3 12C3 7.029 7.029 3 12 3C16.971 3 21 7.029 21 12C21 16.971 16.971 21 12 21Z" stroke="#00B0B9" stroke-width="1.5" stroke-linecap="round" stroke-linejoin="round"/>
<path d="M12 13.25V13C12 12.183 12.505 11.74 13.011 11.4C13.505 11.067 14 10.633 14 9.83301C14 8.72801 13.105 7.83301 12 7.83301C10.895 7.83301 10 8.72801 10 9.83301" stroke="#00B0B9" stroke-width="1.5" stroke-linecap="round" stroke-linejoin="round"/>
<path d="M11.997 15.4985C11.5822 15.4985 11.2455 15.8352 11.2486 16.2499C11.2486 16.6647 11.5852 17.0013 12 17.0013C12.4147 17.0013 12.7514 16.6647 12.7514 16.2499C12.7514 15.8352 12.4147 15.4985 11.997 15.4985Z" fill="#00B0B9"/>
</g>
<defs>
<clipPath id="clip0">
<rect width="24" height="24" fill="white"/>
</clipPath>
</defs>
</svg>
