<svg width="26" height="26" viewBox="0 0 26 26" fill="none" xmlns="http://www.w3.org/2000/svg">
    <path d="M22.3333 25H3.66667C2.19333 25 1 23.8067 1 22.3333V3.66667C1 2.19333 2.19333 1 3.66667 1H22.3333C23.8067 1 25 2.19333 25 3.66667V22.3333C25 23.8067 23.8067 25 22.3333 25Z" stroke="#00B0B9" stroke-width="1.5" stroke-linecap="round" stroke-linejoin="round"/>
    <path d="M12.9987 17.5667L16.1987 19.2347C16.8214 19.56 17.5494 19.0347 17.4307 18.3467L16.8201 14.812L19.4094 12.3094C19.9134 11.8214 19.6361 10.972 18.9387 10.872L15.3614 10.356L13.7614 7.13736C13.4494 6.51069 12.5494 6.51069 12.2387 7.13736L10.6387 10.356L7.0614 10.872C6.3654 10.972 6.08673 11.8227 6.59073 12.3094L9.18006 14.812L8.5694 18.3467C8.45073 19.0347 9.17873 19.56 9.8014 19.2347L13.0014 17.5667" stroke="#00B0B9" stroke-width="1.5" stroke-linecap="round" stroke-linejoin="round"/>
    </svg>
    