<svg width="30" height="26" viewBox="0 0 30 26" fill="none" xmlns="http://www.w3.org/2000/svg">
<path d="M10.9993 18.2H4.19935C2.79935 18.2 1.66602 17.0667 1.66602 15.6667V3.53333C1.66602 2.13333 2.79935 1 4.19935 1H24.466C25.866 1 26.9993 2.13333 26.9993 3.53333V11.6667" stroke="#00B0B9" stroke-width="1.5" stroke-linecap="round" stroke-linejoin="round"/>
<path d="M28.9844 20.334L26.9844 18.334L24.9844 20.334" stroke="#00B0B9" stroke-width="1.5" stroke-linecap="round" stroke-linejoin="round"/>
<path d="M26.9847 18.334V22.8686C26.9847 24.042 26.0247 25.0007 24.8527 25.0007H21.666" stroke="#00B0B9" stroke-width="1.5" stroke-linecap="round" stroke-linejoin="round"/>
<path d="M15.6816 20.334L17.6816 22.334L19.6816 20.334" stroke="#00B0B9" stroke-width="1.5" stroke-linecap="round" stroke-linejoin="round"/>
<path d="M17.6816 22.3327V17.798C17.6816 16.6247 18.6416 15.666 19.8136 15.666H23.0003" stroke="#00B0B9" stroke-width="1.5" stroke-linecap="round" stroke-linejoin="round"/>
<path d="M16.5717 7.62722C17.8077 8.86322 17.8077 10.8686 16.5717 12.1059C15.3357 13.3419 13.3303 13.3419 12.093 12.1059C10.857 10.8699 10.857 8.86455 12.093 7.62722C13.3303 6.38989 15.3357 6.38989 16.5717 7.62722" stroke="#00B0B9" stroke-width="1.5" stroke-linecap="round" stroke-linejoin="round"/>
<path d="M6.99935 14.334H5.66602" stroke="#00B0B9" stroke-width="1.5" stroke-linecap="round" stroke-linejoin="round"/>
<path d="M22.9993 5H21.666" stroke="#00B0B9" stroke-width="1.5" stroke-linecap="round" stroke-linejoin="round"/>
</svg>
