<svg width="24" height="24" viewBox="0 0 24 24" fill="none" xmlns="http://www.w3.org/2000/svg">
<path d="M14.8284 9.17158C16.3905 10.7337 16.3905 13.2663 14.8284 14.8284C13.2663 16.3905 10.7337 16.3905 9.17158 14.8284C7.60948 13.2663 7.60948 10.7337 9.17158 9.17158C10.7337 7.60948 13.2663 7.60948 14.8284 9.17158Z" fill="#00B0B9"/>
<path d="M14.8284 9.17158C16.3905 10.7337 16.3905 13.2663 14.8284 14.8284C13.2663 16.3905 10.7337 16.3905 9.17158 14.8284C7.60948 13.2663 7.60948 10.7337 9.17158 9.17158C10.7337 7.60948 13.2663 7.60948 14.8284 9.17158" stroke="#00B0B9" stroke-width="1.5" stroke-linecap="round" stroke-linejoin="round"/>
<path d="M18.3639 5.63604C21.8787 9.15076 21.8787 14.8492 18.3639 18.3639C14.8492 21.8787 9.15074 21.8787 5.63604 18.3639C2.12132 14.8492 2.12132 9.15074 5.63604 5.63604C9.15076 2.12132 14.8492 2.12132 18.3639 5.63604" stroke="#00B0B9" stroke-width="1.5" stroke-linecap="round" stroke-linejoin="round"/>
</svg>
