<svg width="18" height="22" viewBox="0 0 18 22" fill="none" xmlns="http://www.w3.org/2000/svg">
<path d="M10.0898 4.5L11.5898 3L10.0898 1.5" stroke="#FFCC00" stroke-width="1.5" stroke-linecap="round" stroke-linejoin="round"/>
<path d="M7.91016 17.5L6.41016 19L7.91016 20.5" stroke="#FFCC00" stroke-width="1.5" stroke-linecap="round" stroke-linejoin="round"/>
<path d="M14.6738 5.37109C16.1088 6.81709 16.9998 8.80209 16.9998 11.0001C16.9998 15.4181 13.4178 19.0001 8.99977 19.0001C8.21377 19.0001 7.45677 18.8821 6.73877 18.6711" stroke="#FFCC00" stroke-width="1.5" stroke-linecap="round" stroke-linejoin="round"/>
<path d="M3.254 16.562C1.86 15.122 1 13.162 1 11C1 6.582 4.582 3 9 3C9.786 3 10.543 3.118 11.261 3.329" stroke="#FFCC00" stroke-width="1.5" stroke-linecap="round" stroke-linejoin="round"/>
<path d="M5.5 11L9.00015 7.49985L12.501 11.0007L9.00085 14.5009L5.5 11Z" stroke="#FFCC00" stroke-width="1.5" stroke-linecap="round" stroke-linejoin="round"/>
</svg>
