<svg width="32" height="32" viewBox="0 0 32 32" fill="none" xmlns="http://www.w3.org/2000/svg">
    <path d="M22.414 10.414L19.586 7.586C19.211 7.2109 18.7024 7.00011 18.172 7H11C10.4696 7 9.96086 7.21071 9.58579 7.58579C9.21071 7.96086 9 8.46957 9 9V23C9 23.5304 9.21071 24.0391 9.58579 24.4142C9.96086 24.7893 10.4696 25 11 25H21C21.5304 25 22.0391 24.7893 22.4142 24.4142C22.7893 24.0391 23 23.5304 23 23V11.828C22.9999 11.2976 22.7891 10.789 22.414 10.414V10.414Z" stroke="#00B0B9" stroke-width="1.5" stroke-linecap="round" stroke-linejoin="round"/>
    <path d="M23 12H19C18.7348 12 18.4804 11.8946 18.2929 11.7071C18.1054 11.5196 18 11.2652 18 11V7" stroke="#00B0B9" stroke-width="1.5" stroke-linecap="round" stroke-linejoin="round"/>
    <path d="M16 18V15" stroke="#00B0B9" stroke-width="1.5" stroke-linecap="round" stroke-linejoin="round"/>
    <path d="M16.1771 20.8477C16.224 20.8947 16.2504 20.9583 16.2504 21.0247C16.2504 21.0911 16.224 21.1548 16.1771 21.2017C16.1301 21.2487 16.0665 21.275 16.0001 21.275C15.9337 21.275 15.87 21.2487 15.8231 21.2017C15.7998 21.1785 15.7814 21.1509 15.7688 21.1205C15.7562 21.0902 15.7498 21.0576 15.7498 21.0247C15.7498 20.9919 15.7562 20.9593 15.7688 20.9289C15.7814 20.8986 15.7998 20.871 15.8231 20.8477C15.8463 20.8245 15.8739 20.806 15.9043 20.7935C15.9346 20.7809 15.9672 20.7744 16.0001 20.7744C16.0329 20.7744 16.0655 20.7809 16.0959 20.7935C16.1262 20.806 16.1538 20.8245 16.1771 20.8477" stroke="#00B0B9" stroke-width="1.5" stroke-linecap="round" stroke-linejoin="round"/>
    </svg>
    