<svg width="108" height="24" viewBox="0 0 108 24" fill="none" xmlns="http://www.w3.org/2000/svg">
<path d="M15.3306 0L21.1367 10.1255L23.5292 5.94622L20.1157 0H15.3306Z" fill="#FFFFFF"/>
<path d="M94.2543 0L80.5085 24H86.8785L94.2543 11.1088L101.63 24H108L94.2543 0Z" fill="#FFFFFF"/>
<path d="M85.8271 0L78.4361 12.8912L71.0603 0H64.7056L78.4361 24L92.1818 0H85.8271Z" fill="#FFFFFF"/>
<path d="M25.0989 19.8207L27.4914 24L30.905 18.0538L28.5124 13.8745L25.0989 19.8207Z" fill="#FFFFFF"/>
<path d="M56.3544 0.138284C53.2151 0.138284 50.2587 1.36748 48.0338 3.61075C47.3481 4.30217 46.7385 5.08578 46.2508 5.90012C46.2051 5.96158 46.1899 6.00768 46.1441 6.06914L42.2429 12.8758L34.8672 0L32.4746 4.17925L43.0354 22.6171L49.832 10.7401C49.832 10.7401 51.2035 8.26632 51.9045 7.5288C53.0627 6.31498 54.6629 5.66965 56.3392 5.66965C58.0155 5.66965 59.5851 6.33034 60.7737 7.5288C61.9624 8.72727 62.6177 10.3098 62.6177 12C62.6177 13.6901 61.9624 15.2727 60.7737 16.4712C59.5851 17.6696 58.0155 18.3303 56.3392 18.3303C54.6629 18.3303 53.0932 17.6696 51.9045 16.4712C51.0816 15.6415 50.5178 14.6274 50.2435 13.5211L46.9823 19.2061C47.3023 19.621 47.6376 20.0205 48.0033 20.3892C50.2283 22.6325 53.1846 23.8617 56.3239 23.8617C59.4632 23.8617 62.4196 22.6325 64.6445 20.3892C66.8694 18.146 68.0885 15.1652 68.0885 12C68.0885 8.83482 66.8694 5.85403 64.6445 3.61075C62.4501 1.38284 59.5089 0.138284 56.3544 0.138284Z" fill="#FFFFFF"/>
<path d="M21.1367 12.8912L13.7457 0L0 24H6.36994L13.7457 11.1088L21.1367 24L28.5125 11.1088L35.8882 24H42.2582L28.5125 0L21.1367 12.8912Z" fill="#FFFFFF"/>
</svg>
