<svg width="16" height="16" viewBox="0 0 16 16" fill="none" xmlns="http://www.w3.org/2000/svg">
<path d="M0.266656 14.4C0.119375 14.4 0 14.5194 0 14.6667C0 14.8139 0.119375 14.9333 0.266656 14.9333H15.7333C15.8806 14.9333 16 14.8139 16 14.6667C16 14.5194 15.8806 14.4 15.7333 14.4H15.4667V2.93334C15.4667 1.31331 14.1534 0 12.5333 0C10.9133 0 9.6 1.31331 9.6 2.93334V5.86669C9.6 6.01397 9.71937 6.13334 9.86666 6.13334C10.0139 6.13334 10.1333 6.01397 10.1333 5.86669V5.33334H12.2667C12.4139 5.33334 12.5333 5.21397 12.5333 5.06669C12.5333 4.91941 12.4139 4.80003 12.2667 4.80003H10.1333V4H12.2667C12.4139 4 12.5333 3.88063 12.5333 3.73334C12.5333 3.58606 12.4139 3.46669 12.2667 3.46669H10.1333V2.93334C10.1333 1.60787 11.2078 0.533344 12.5333 0.533344C13.8588 0.533344 14.9333 1.60787 14.9333 2.93334V3.46669H13.3333C13.186 3.46669 13.0667 3.58606 13.0667 3.73334C13.0667 3.88063 13.186 4 13.3333 4H14.9333V4.8H13.3333C13.186 4.8 13.0667 4.91937 13.0667 5.06666C13.0667 5.21394 13.186 5.33331 13.3333 5.33331H14.9333V6.13331H11.4667C11.3194 6.13331 11.2 6.25269 11.2 6.39997C11.2 6.54725 11.3194 6.66663 11.4667 6.66663H14.9333V7.46663H12.5298C12.3826 7.46663 12.2632 7.586 12.2632 7.73328C12.2632 7.88056 12.3826 7.99994 12.5298 7.99994H14.9333V8.79994H13.3333C13.186 8.79994 13.0667 8.91931 13.0667 9.06659C13.0667 9.21388 13.186 9.33325 13.3333 9.33325H14.9333V10.1333H12.2667C12.1194 10.1333 12 10.2527 12 10.3999C12 10.5472 12.1194 10.6666 12.2667 10.6666H14.9333V11.4666H12.2667C12.1194 11.4666 12 11.5859 12 11.7332C12 11.8805 12.1194 11.9999 12.2667 11.9999H14.9333V12.7999H12.2667C12.1194 12.7999 12 12.9192 12 13.0665C12 13.2138 12.1194 13.3332 12.2667 13.3332H14.9333V14.4H11.4667V8.97494L11.8312 9.27306C11.9047 9.33512 12.006 9.35275 12.0962 9.31916C12.1864 9.28556 12.2515 9.20597 12.2666 9.11091C12.2816 9.01584 12.2442 8.92006 12.1688 8.86028L6.30216 4.06028C6.20394 3.97997 6.06275 3.97997 5.96456 4.06028L0.097875 8.86028C-0.0134687 8.95422 -0.0288125 9.12016 0.0634063 9.23291C0.155625 9.34569 0.321281 9.36356 0.435469 9.27306L0.8 8.97494V14.4H0.266656ZM9.33334 14.4H2.93334V10.6667H9.33334V14.4ZM1.33334 8.53841L6.13334 4.61122L10.9333 8.53841V14.4H9.86669V10.6667H10.1333C10.2806 10.6667 10.4 10.5472 10.4 10.4C10.4 10.2527 10.2806 10.1333 10.1333 10.1333H2.13334C1.98606 10.1333 1.86669 10.2527 1.86669 10.4C1.86669 10.5473 1.98606 10.6667 2.13334 10.6667H2.4V14.4H1.33334V8.53841Z" fill="#9AAFC2"/>
<path d="M2.66666 15.4668H0.266656C0.119375 15.4668 0 15.5862 0 15.7334C0 15.8807 0.119375 16.0001 0.266656 16.0001H2.66666C2.81394 16.0001 2.93331 15.8807 2.93331 15.7335C2.93331 15.5862 2.81394 15.4668 2.66666 15.4668Z" fill="#9AAFC2"/>
<path d="M15.7334 15.4668H3.73345C3.58617 15.4668 3.4668 15.5862 3.4668 15.7335C3.4668 15.8807 3.58617 16.0001 3.73345 16.0001H15.7334C15.8807 16.0001 16.0001 15.8807 16.0001 15.7335C16.0001 15.5862 15.8807 15.4668 15.7334 15.4668Z" fill="#9AAFC2"/>
<path d="M4.26666 9.33346H8C8.14728 9.33346 8.26666 9.21409 8.26666 9.0668V7.73345C8.26666 7.58617 8.14728 7.4668 8 7.4668H4.26666C4.11938 7.4668 4 7.58617 4 7.73345V9.0668C4 9.21406 4.11938 9.33346 4.26666 9.33346ZM4.53334 8.00011H7.73334V8.80012H4.53334V8.00011Z" fill="#9AAFC2"/>
<path d="M2.66705 8.79991H3.20039C3.34767 8.79991 3.46705 8.68051 3.46705 8.53326C3.46705 8.38598 3.34767 8.2666 3.20039 8.2666H2.66705C2.51977 8.2666 2.40039 8.38601 2.40039 8.53326C2.40039 8.68051 2.51977 8.79991 2.66705 8.79991Z" fill="#9AAFC2"/>
<path d="M9.06646 8.79991H9.5998C9.74709 8.79991 9.86646 8.68051 9.86646 8.53326C9.86646 8.38598 9.74709 8.2666 9.5998 8.2666H9.06646C8.91918 8.2666 8.7998 8.38601 8.7998 8.53326C8.7998 8.68051 8.91921 8.79991 9.06646 8.79991Z" fill="#9AAFC2"/>
</svg>
