<svg width="24" height="24" viewBox="0 0 24 24" fill="none" xmlns="http://www.w3.org/2000/svg">
    <path d="M13.6 20H10.4" stroke="#9AAFC2" stroke-width="1.5" stroke-linecap="round" stroke-linejoin="round"/>
    <path d="M17 9.43684V9.40226C17 6.41913 14.761 4 12 4C9.239 4 7 6.41913 7 9.40226V9.43684V12.1077C7 12.4578 6.817 12.7765 6.528 12.9332L6.025 13.2044C5.397 13.5447 5 14.2384 5 14.9968C5 16.1032 5.83 17 6.854 17H17.146C18.17 17 19 16.1032 19 14.9968C19 14.2384 18.603 13.5447 17.975 13.2055L17.472 12.9343C17.183 12.7765 17 12.4578 17 12.1077V9.43684V9.43684Z" stroke="#9AAFC2" stroke-width="1.5" stroke-linecap="round" stroke-linejoin="round"/>
    </svg>
    