<svg width="512" height="512" viewBox="0 0 512 512" fill="none" xmlns="http://www.w3.org/2000/svg">
<rect width="512" height="512" fill="#00B0B9"/>
<path d="M127.102 216L146.455 249.751L154.43 235.821L143.052 216H127.102Z" fill="white"/>
<path d="M390.18 216L344.361 296H365.594L390.18 253.029L414.765 296H435.999L390.18 216Z" fill="white"/>
<path d="M362.09 216L337.453 258.97L312.867 216H291.685L337.453 296L383.272 216H362.09Z" fill="white"/>
<path d="M159.663 282.069L167.638 296L179.016 276.179L171.041 262.249L159.663 282.069Z" fill="white"/>
<path d="M263.847 216.461C253.383 216.461 243.529 220.558 236.112 228.036C233.827 230.341 231.795 232.953 230.169 235.667C230.017 235.872 229.966 236.026 229.813 236.23L216.809 258.919L192.224 216L184.249 229.931L219.451 291.39L242.106 251.8C242.106 251.8 246.678 243.554 249.015 241.096C252.875 237.05 258.209 234.899 263.797 234.899C269.384 234.899 274.616 237.101 278.579 241.096C282.541 245.091 284.725 250.366 284.725 256C284.725 261.634 282.541 266.909 278.579 270.904C274.616 274.899 269.384 277.101 263.797 277.101C258.209 277.101 252.977 274.899 249.015 270.904C246.272 268.138 244.392 264.758 243.478 261.07L232.607 280.02C233.674 281.403 234.792 282.735 236.011 283.964C243.427 291.441 253.282 295.539 263.746 295.539C274.21 295.539 284.065 291.441 291.481 283.964C298.898 276.486 302.961 266.55 302.961 256C302.961 245.449 298.898 235.513 291.481 228.036C284.166 220.609 274.362 216.461 263.847 216.461Z" fill="white"/>
<path d="M146.455 258.97L121.819 216L76 296H97.2331L121.819 253.029L146.455 296L171.041 253.029L195.627 296H216.86L171.041 216L146.455 258.97Z" fill="white"/>
</svg>
